<?xml version="1.0" encoding="utf-8"?>
<!-- Generator: Adobe Illustrator 29.1.0, SVG Export Plug-In . SVG Version: 9.03 Build 55587)  -->
<svg version="1.0" id="Layer_1" xmlns="http://www.w3.org/2000/svg" xmlns:xlink="http://www.w3.org/1999/xlink" x="0px" y="0px"
	 viewBox="0 0 100 100" style="enable-background:new 0 0 100 100;" xml:space="preserve">
<style type="text/css">
	.st0{fill:#00CFB8;}
	.st1{fill:#FFFFFF;}
	.st2{fill:#778CEA;}
	.st3{fill:#00CEB7;}
	.st4{fill:#FF826D;}
	.st5{fill:#FFC14B;}
	.st6{fill:#FC5602;}
	.st7{fill:#4EDC87;}
	.st8{fill:#C665FC;}
	.st9{fill:#FFD49E;}
	.st10{fill:none;}
	.st11{fill:#6D4689;}
	.st12{fill:#231F20;}
	.st13{fill:#C9C9C9;}
	.st14{fill:#060606;}
	.st15{fill:#050505;}
	.st16{fill:#778DEB;}
	.st17{stroke:#000000;stroke-miterlimit:10;}
	.st18{fill:#FAD4FC;}
	.st19{fill:#C4EA71;}
	.st20{fill:#F0D6F7;}
	.st21{fill:none;stroke:#000000;stroke-width:3;stroke-miterlimit:10;}
	.st22{fill:#221F20;}
	.st23{fill:none;stroke:#000000;stroke-width:3;stroke-miterlimit:10;stroke-dasharray:10;}
	.st24{fill:#7CD88B;}
	.st25{fill:#69B7F7;}
	.st26{fill:#FFA26E;}
	.st27{fill:#E570CC;}
	.st28{fill:#606795;}
	.st29{fill:#F9C467;}
	.st30{fill:#7EE8E8;}
	.st31{fill:#C0B9EB;}
	.st32{fill:#FFFFFF;stroke:#FFFFFF;stroke-width:5;stroke-miterlimit:10;}
</style>
<path class="st1" d="M97.185,91.214c0.821-1.017,1.447-2.59,1.797-4.197c0.809-2.577,0.661-5.554-0.372-8.014
	c-1.897-4.512-6.002-7.717-9.301-10.293c-19.37-15.071-17.474-13.712-17.924-13.922c4.921-11.283,4.035-24.012-1.396-33.384
	C59.724,3.692,36.366,1.415,20.609,9.458c-1.117,0.57-2.207,1.251-3.272,2.029c-0.096,0.042-0.192,0.085-0.283,0.126
	c-4.915,2.217-12.301,10.335-15.157,20.35C-1.105,42.487,0.799,54.302,6.954,63.35c11.099,16.316,33.514,21.465,50.479,10.033
	c8.375,7.981,15.65,14.949,24.75,19.485c2.353,1.173,4.884,2.232,7.509,2.098C92.111,94.842,95.663,93.099,97.185,91.214z"/>
<g id="_x31_42_00000088850958508470651810000002720235900673742502_">
	<path d="M26.751,19.806c-2.856,1.459-5.459,3.928-7.737,7.338v0.002c-3.194,4.783-4.454,10.729-3.641,17.196
		c1.033,8.233,7.605,16.44,16.303,18.652c25.099,6.399,37.135-19.304,27.913-35.216C52.755,15.987,37.224,14.462,26.751,19.806z
		 M32.248,60.75c-7.822-1.993-13.667-9.448-14.577-16.698c-0.742-5.905,0.389-11.307,3.269-15.622v0.002
		c2.056-3.078,4.366-5.287,6.865-6.564c9.533-4.865,23.629-3.547,29.781,7.07C65.753,43.028,55.458,66.658,32.248,60.75z"/>
	<path d="M97.185,91.214c0.821-1.017,1.447-2.59,1.797-4.197c0.809-2.577,0.661-5.554-0.372-8.014
		c-1.897-4.512-6.002-7.717-9.301-10.293c-19.37-15.071-17.474-13.712-17.924-13.922c4.921-11.283,4.035-24.012-1.396-33.384
		C59.724,3.692,36.366,1.415,20.609,9.458c-1.117,0.57-2.207,1.251-3.272,2.029c-0.096,0.042-0.192,0.085-0.283,0.126
		c-4.915,2.217-12.301,10.335-15.157,20.35C-1.105,42.487,0.799,54.302,6.954,63.35c11.099,16.316,33.514,21.465,50.479,10.033
		c8.375,7.981,15.65,14.949,24.75,19.485c2.353,1.173,4.884,2.232,7.509,2.098C92.111,94.842,95.663,93.099,97.185,91.214z
		 M28.58,72.082C16.521,69.009,7.287,57.517,5.845,46.046c-1.152-9.174,0.61-17.574,5.095-24.29
		c3.203-4.794,6.81-8.238,10.723-10.236c14.812-7.566,36.738-5.493,46.321,11.044C80.683,44.473,64.724,81.279,28.58,72.082z
		 M93.703,90.096c-1.67,0.779-3.876,0.727-6.051-0.151c-1.988-0.802-3.7-2.094-5.731-3.699
		c-6.738-5.325-13.377-10.938-19.783-16.692c3.636-3.544,6.473-7.894,8.297-12.633c20.367,15.894,23.95,18.01,26.04,22.98
		C97.953,83.418,97.178,88.469,93.703,90.096z"/>
</g>
<g id="_x31_42_00000013886307448330255250000014908958880048041379_">
	<path d="M26.751,19.806c-2.856,1.459-5.459,3.928-7.737,7.338v0.002c-3.194,4.783-4.454,10.729-3.641,17.196
		c1.033,8.233,7.605,16.44,16.303,18.652c25.099,6.399,37.135-19.304,27.913-35.216C52.755,15.987,37.224,14.462,26.751,19.806z
		 M32.248,60.75c-7.822-1.993-13.667-9.448-14.577-16.698c-0.742-5.905,0.389-11.307,3.269-15.622v0.002
		c2.056-3.078,4.366-5.287,6.865-6.564c9.533-4.865,23.629-3.547,29.781,7.07C65.753,43.028,55.458,66.658,32.248,60.75z"/>
</g>
<g>
	<circle class="st0" cx="40.48" cy="30.711" r="5.502"/>
	<polygon class="st0" points="25.632,51.054 27.028,46.095 34.978,39.628 40.48,39.014 45.456,40.287 49.494,43.646 52.974,50.83 	
		"/>
	<g>
		<path d="M35.872,25.698c-0.689,0.462-1.271,1.069-1.725,1.763c-0.227,0.347-0.422,0.715-0.583,1.099
			c-0.322,0.766-0.505,1.591-0.53,2.417c-0.025,0.826,0.108,1.652,0.421,2.423c0.392,0.966,1.049,1.773,1.863,2.388
			c0.617,0.47,1.337,0.83,2.115,1.063c0.029,0.009,0.058,0.02,0.087,0.028c0.127,0.036,0.258,0.065,0.388,0.095
			c0.094,0.021,0.187,0.043,0.281,0.061c0.075,0.013,0.151,0.024,0.227,0.035c0.169,0.026,0.338,0.046,0.509,0.059
			c0.012,0.001,0.024,0.001,0.036,0.002c0.959,0.07,1.936-0.052,2.849-0.403c0.093-0.036,0.31-0.12,0.561-0.233
			c0.223-0.058,0.444-0.123,0.661-0.204c0.721-0.267,1.369-0.647,1.934-1.112c0.034-0.028,0.067-0.056,0.1-0.084
			c0.12-0.103,0.237-0.209,0.348-0.32c0.063-0.062,0.123-0.125,0.183-0.189c0.076-0.082,0.15-0.166,0.222-0.252
			c0.078-0.094,0.154-0.189,0.226-0.287c0.047-0.064,0.093-0.129,0.137-0.195c0.082-0.12,0.16-0.242,0.232-0.367
			c0.032-0.055,0.062-0.11,0.092-0.166c0.072-0.133,0.14-0.268,0.201-0.406c0.013-0.029,0.03-0.056,0.042-0.085
			c0.017-0.038,0.028-0.078,0.044-0.116c0.047-0.115,0.091-0.23,0.13-0.348c0.033-0.096,0.061-0.192,0.088-0.289
			c0.026-0.091,0.051-0.182,0.073-0.275c0.03-0.129,0.054-0.259,0.076-0.39c0.011-0.065,0.022-0.13,0.031-0.195
			c0.021-0.157,0.033-0.314,0.041-0.471c0.002-0.046,0.006-0.091,0.008-0.137c0.005-0.171,0-0.343-0.01-0.514
			c-0.002-0.037-0.002-0.074-0.005-0.112c-0.014-0.173-0.037-0.345-0.066-0.517c-0.006-0.038-0.01-0.077-0.017-0.115
			c-0.032-0.168-0.074-0.335-0.121-0.502c-0.011-0.041-0.019-0.083-0.031-0.124c-0.062-0.204-0.134-0.407-0.218-0.607
			c-0.09-0.213-0.192-0.417-0.302-0.615c-0.035-0.062-0.075-0.12-0.112-0.18c-0.081-0.133-0.162-0.265-0.252-0.391
			c-0.048-0.067-0.101-0.131-0.151-0.196c-0.087-0.112-0.175-0.224-0.269-0.33c-0.057-0.064-0.117-0.125-0.176-0.186
			c-0.096-0.1-0.193-0.197-0.295-0.29c-0.064-0.059-0.13-0.115-0.197-0.171c-0.104-0.088-0.211-0.172-0.32-0.253
			c-0.071-0.053-0.142-0.104-0.215-0.154c-0.112-0.076-0.227-0.148-0.344-0.218c-0.076-0.045-0.151-0.091-0.229-0.133
			c-0.12-0.065-0.243-0.125-0.367-0.183c-0.079-0.037-0.157-0.076-0.238-0.111c-0.13-0.055-0.263-0.103-0.396-0.15
			c-0.079-0.028-0.156-0.059-0.235-0.084c-0.156-0.049-0.314-0.089-0.474-0.127c-0.06-0.014-0.118-0.034-0.179-0.046
			c-0.216-0.046-0.435-0.081-0.655-0.106c-0.083-0.01-0.167-0.011-0.251-0.018c-0.142-0.011-0.285-0.023-0.428-0.025
			c-0.095-0.002-0.189,0.004-0.284,0.006c-0.135,0.003-0.27,0.007-0.406,0.018c-0.094,0.008-0.189,0.021-0.283,0.033
			c-0.139,0.017-0.277,0.036-0.415,0.062c-0.088,0.016-0.176,0.036-0.263,0.056c-0.149,0.034-0.296,0.072-0.444,0.116
			c-0.076,0.023-0.151,0.046-0.227,0.072c-0.069,0.023-0.14,0.04-0.209,0.066c-0.102,0.038-0.197,0.084-0.296,0.126
			c-0.048,0.02-0.096,0.04-0.144,0.061c-0.22,0.099-0.433,0.207-0.637,0.326c0,0,0,0,0,0c0,0,0,0,0,0
			c-0.04,0.013-0.073,0.023-0.094,0.032C36.588,25.272,36.216,25.467,35.872,25.698z M39.727,25.475
			c0.052-0.008,0.104-0.014,0.156-0.021c0.229-0.028,0.46-0.047,0.692-0.047c2.153,0,4.193,1.214,5.03,3.2
			c0.065,0.155,0.122,0.311,0.169,0.469c0.008,0.026,0.012,0.052,0.02,0.078c0.038,0.134,0.073,0.268,0.099,0.403
			c0.003,0.016,0.004,0.033,0.007,0.049c0.026,0.146,0.048,0.292,0.06,0.438c0.001,0.006,0,0.012,0.001,0.018
			c0.013,0.156,0.018,0.313,0.015,0.468c0,0.002,0,0.004,0,0.005c-0.003,0.158-0.014,0.315-0.033,0.472
			c-0.001,0.011-0.004,0.021-0.005,0.032c-0.019,0.146-0.043,0.29-0.075,0.433c-0.007,0.031-0.017,0.062-0.025,0.093
			c-0.029,0.12-0.061,0.239-0.1,0.357c-0.02,0.061-0.046,0.122-0.068,0.183c-0.032,0.085-0.063,0.171-0.1,0.254
			c-0.048,0.109-0.102,0.213-0.158,0.318c-0.022,0.042-0.042,0.086-0.065,0.127c-0.072,0.126-0.15,0.247-0.232,0.366
			c-0.014,0.02-0.025,0.041-0.039,0.06c-0.199,0.279-0.425,0.537-0.678,0.771c-0.002,0.002-0.004,0.003-0.006,0.005
			c-0.124,0.115-0.254,0.224-0.39,0.327c-0.043,0.032-0.09,0.061-0.134,0.092c-0.099,0.07-0.196,0.141-0.3,0.204
			c-0.071,0.043-0.147,0.08-0.22,0.121c-0.083,0.046-0.164,0.094-0.25,0.136c-0.162,0.079-0.331,0.151-0.506,0.216
			c-0.556,0.205-1.138,0.322-1.731,0.35c-1.139,0.042-2.24-0.251-3.164-0.802c-0.009-0.006-0.019-0.011-0.029-0.017
			c-0.19-0.115-0.367-0.246-0.541-0.382c-0.083-0.066-0.163-0.135-0.242-0.205c-0.105-0.093-0.205-0.19-0.302-0.291
			c-0.088-0.092-0.173-0.187-0.255-0.285c-0.101-0.123-0.198-0.249-0.288-0.381c-0.047-0.069-0.093-0.14-0.137-0.211
			c-0.113-0.187-0.218-0.381-0.306-0.584c-0.009-0.021-0.02-0.041-0.028-0.062c-0.429-1.033-0.48-2.15-0.156-3.2
			c0.006-0.019,0.011-0.038,0.017-0.057c0.047-0.147,0.101-0.293,0.164-0.437c0.096-0.222,0.212-0.43,0.336-0.631
			c0.028-0.046,0.057-0.092,0.087-0.137c0.13-0.195,0.268-0.383,0.422-0.556c0.007-0.008,0.015-0.015,0.022-0.023
			c0.149-0.166,0.311-0.318,0.479-0.462c0.039-0.034,0.079-0.067,0.119-0.1c0.18-0.145,0.367-0.282,0.564-0.402
			c0.004-0.002,0.008-0.004,0.011-0.006c0.189-0.114,0.387-0.213,0.588-0.304c0.064-0.029,0.13-0.056,0.196-0.083
			c0.178-0.073,0.36-0.138,0.545-0.192c0.032-0.009,0.063-0.021,0.094-0.03C39.28,25.553,39.503,25.509,39.727,25.475z"/>
		<path d="M53.401,50.899c0.008-0.168-0.033-0.352-0.093-0.539c-0.005-0.015-0.009-0.029-0.014-0.044
			c-0.023-0.067-0.048-0.134-0.074-0.201c-0.01-0.025-0.019-0.05-0.029-0.074c-0.033-0.079-0.067-0.157-0.1-0.233
			c-0.041-0.095-0.082-0.184-0.111-0.262c-0.158-0.433-0.317-0.859-0.479-1.281c-0.057-0.149-0.117-0.299-0.175-0.447
			c-0.136-0.344-0.277-0.682-0.423-1.016c-0.04-0.092-0.075-0.187-0.116-0.278c-0.015-0.034-0.031-0.065-0.047-0.098
			c-0.008-0.017-0.016-0.033-0.024-0.05c-0.13-0.284-0.264-0.556-0.401-0.82c-0.04-0.077-0.08-0.154-0.121-0.231
			c-0.145-0.27-0.292-0.533-0.445-0.783c-0.035-0.057-0.072-0.113-0.107-0.169c-0.146-0.232-0.297-0.455-0.451-0.671
			c-0.053-0.074-0.106-0.149-0.161-0.222c-0.189-0.253-0.385-0.496-0.588-0.729c-0.04-0.045-0.082-0.09-0.122-0.135
			c-0.233-0.259-0.473-0.509-0.726-0.745c-1.712-1.595-3.623-2.596-5.606-3.098c-0.013-0.003-0.026-0.006-0.039-0.01
			c-0.261-0.065-0.522-0.124-0.785-0.172c-0.231-0.045-0.464-0.08-0.698-0.112c-0.018-0.002-0.035-0.005-0.053-0.007
			c-0.181-0.024-0.362-0.056-0.544-0.072c-0.316-0.028-0.631-0.039-0.952-0.041c-0.508,0-1.006,0.036-1.498,0.1
			c-0.45,0.042-0.863,0.103-1.178,0.173c-0.064,0.014-0.124,0.032-0.188,0.047c-1.002,0.206-1.991,0.516-2.956,0.925
			c-1.521,0.621-2.916,1.459-4.296,2.603c-0.1,0.081-0.201,0.161-0.3,0.244c-0.077,0.067-0.155,0.137-0.232,0.206
			c-0.279,0.244-0.551,0.498-0.817,0.76c-0.022,0.022-0.044,0.04-0.067,0.062c-0.024,0.024-0.045,0.049-0.069,0.073
			c-0.184,0.185-0.364,0.374-0.542,0.567c-1.893,2.026-3.249,4.281-4.118,6.999c-0.116,0.355-0.223,0.714-0.318,1.078
			c-0.001,0.006-0.003,0.011-0.005,0.016c-0.01,0.04-0.014,0.08-0.016,0.119c0,0.006-0.002,0.013-0.003,0.019
			c-0.001,0.045,0.004,0.09,0.014,0.133c0.01,0.043,0.024,0.084,0.043,0.124c0.038,0.079,0.093,0.148,0.161,0.204
			c0.043,0.035,0.092,0.062,0.144,0.084c0.071,0.03,0.148,0.05,0.231,0.049l1.356-0.006c13.421-0.057,20.054-0.075,23.389-0.1
			c0.28-0.001,0.561-0.002,0.841-0.004c0.346-0.001,1.397,0.011,2.127-0.046c0.47-0.023,0.519-0.054,0.641-0.1c0,0,0,0,0,0
			c0,0,0,0,0.001,0c0.073-0.028,0.142-0.069,0.209-0.117c0.019-0.014,0.037-0.028,0.056-0.043c0.052-0.042,0.101-0.088,0.147-0.14
			c0.017-0.018,0.034-0.036,0.05-0.055c0.045-0.055,0.086-0.114,0.125-0.175c0.027-0.042,0.05-0.086,0.074-0.13
			c0.012-0.023,0.022-0.045,0.033-0.069c0.084-0.177,0.137-0.361,0.155-0.538c0.057-0.038,0.106-0.081,0.149-0.134
			c0.012-0.014,0.02-0.03,0.03-0.044c0.027-0.041,0.053-0.081,0.07-0.128c0.024-0.065,0.038-0.134,0.043-0.206
			c0-0.001,0-0.001,0-0.002C53.402,50.906,53.401,50.902,53.401,50.899z M48.2,43.267c0.006,0.006,0.012,0.013,0.018,0.019
			c0.747,0.795,1.332,1.664,1.805,2.526c0.098,0.179,0.194,0.363,0.289,0.554c0.014,0.029,0.027,0.057,0.041,0.086
			c0.082,0.168,0.164,0.341,0.245,0.518c0.023,0.05,0.044,0.099,0.066,0.148c0.153,0.342,0.295,0.694,0.437,1.049
			c0.326,0.834,0.579,1.573,0.814,2.111l-24.886,0.238c0.612-2.681,2.091-4.912,4.83-7.333c0.345-0.304,0.685-0.587,1.021-0.85
			c0.01-0.008,0.021-0.016,0.031-0.024c0.328-0.255,0.653-0.492,0.976-0.709c0.014-0.009,0.029-0.018,0.043-0.028
			c0.314-0.209,0.625-0.401,0.935-0.575c0.015-0.008,0.03-0.018,0.045-0.026c0.295-0.164,0.588-0.308,0.882-0.441
			c0.045-0.02,0.09-0.043,0.135-0.063c0.285-0.125,0.571-0.232,0.857-0.329c0.052-0.017,0.103-0.035,0.155-0.052
			c0.298-0.095,0.596-0.176,0.897-0.24c0.026-0.006,0.052-0.01,0.078-0.016c0.64-0.132,1.29-0.199,1.956-0.201
			c0.025,0,0.049-0.001,0.074-0.001c0.271,0.003,0.541,0.011,0.813,0.035c2.57,0.227,5.047,1.34,6.973,3.135
			C47.893,42.952,48.05,43.108,48.2,43.267z"/>
	</g>
</g>
</svg>
