<?xml version="1.0" encoding="UTF-8"?>
<svg id="Layer_1" data-name="Layer 1" xmlns="http://www.w3.org/2000/svg" viewBox="0 0 100 100">
  <defs>
    <style>
      .cls-1 {
        fill: #fff;
      }

      .cls-2 {
        fill: #00cfb8;
      }
    </style>
  </defs>
  <path class="cls-1" d="M5.82,21.52c2.68,4.54-1.05,21.49,1.92,32.03,5.36,19.03,21.7,33.17,39.58,45.09,1.74,1.16,4.02,1.15,5.74-.04,20.23-13.99,32.91-21.62,37.47-33.91,3.95-10.66,1.54-23.38,3.82-34.53-.5-.96-6.1-11.25-6.39-11.36-.03-.01-.07,0-.1-.02C75.16,9.87,62.79,4.23,47.78.52c-.13-.03-.55-.01-.65.02C32.72,5.1,20.51,13.44,6.34,19.7c-.82.36-.77,1.39-.52,1.81h0Z"/>
  <path class="cls-2" d="M21.86,30.74c1.5,2.53-.68,12.96,1.12,19.33,3.09,10.96,12.1,20.43,24.11,25.33.6.25.99-.06,1.31-.25,9.42-5.5,20.09-12.35,23.57-22.86,2.46-7.43-1.21-16.43,1.03-22.34.23-.62-.08-1.31-.7-1.54-.04-.01-.07,0-.11-.02-7.63-3.59-15.22-7.14-24.14-11.03-.16-.07-.55-.14-.84-.04-8.21,2.6-16.14,6.33-24.96,11.73-.6.37-.71,1.15-.39,1.7Z"/>
  <g id="Security">
    <g>
      <path d="M5.82,21.52c2.68,4.54-1.05,21.49,1.92,32.03,5.36,19.03,21.7,33.17,39.58,45.09,1.74,1.16,4.02,1.15,5.74-.04,20.23-13.99,32.91-21.62,37.47-33.91,3.95-10.66,1.54-23.38,3.82-34.53-.5-.96-6.1-11.25-6.39-11.36-.03-.01-.07,0-.1-.02C75.16,9.87,62.79,4.23,47.78.52c-.13-.03-.55-.01-.65.02C32.72,5.1,20.51,13.44,6.34,19.7c-.82.36-.77,1.39-.52,1.81h0ZM47.53,2.93c14.4,3.6,26.34,9.04,38.56,17.56-3.39,10.7,2.27,24.77-1.42,35.93-5.41,16.35-22.66,27.29-37.34,35.88-18.6-7.77-32.52-22.46-37.28-39.4-2.73-9.71.66-25.21-1.66-31.5C22.4,15.06,33.83,7.34,47.53,2.93Z"/>
      <path d="M21.86,30.74c1.5,2.53-.68,12.96,1.12,19.33,3.09,10.96,12.1,20.43,24.11,25.33.6.25.99-.06,1.31-.25,9.42-5.5,20.09-12.35,23.57-22.86,2.46-7.43-1.21-16.43,1.03-22.34.23-.62-.08-1.31-.7-1.54-.04-.01-.07,0-.11-.02-7.63-3.59-15.22-7.14-24.14-11.03-.16-.07-.55-.14-.84-.04-8.21,2.6-16.14,6.33-24.96,11.73-.6.37-.71,1.15-.39,1.7ZM69.69,51.54c-3.22,9.73-13.54,16.3-22.26,21.4-11.05-4.69-19.31-13.44-22.15-23.52-1.6-5.69.34-14.72-.92-18.85,8.15-4.92,15.55-8.39,23.15-10.84,8.42,3.68,15.66,7.06,22.9,10.46-1.77,6.52,1.42,14.89-.72,21.34Z"/>
    </g>
  </g>
  <path d="M44.18,47.55v7.34c0,1.78,1.44,3.22,3.22,3.22s3.22-1.44,3.22-3.22v-7.34c1.92-1.12,3.22-3.17,3.22-5.55,0-3.55-2.89-6.45-6.45-6.45s-6.45,2.89-6.45,6.45c0,2.38,1.31,4.43,3.22,5.55Z"/>
</svg>