<?xml version="1.0" encoding="UTF-8"?><svg id="Layer_1" xmlns="http://www.w3.org/2000/svg" xmlns:xlink="http://www.w3.org/1999/xlink" viewBox="-80 -80 500 500"><defs><style>.cls-1{fill:url(#linear-gradient);}.cls-2{fill:#fff;}.cls-3{fill:#231f20;}.cls-4{fill:url(#linear-gradient-2);}</style><linearGradient id="linear-gradient" x1="348.98" y1="174.49" x2="0" y2="174.49" gradientUnits="userSpaceOnUse"><stop offset="0" stop-color="#2161ad"/><stop offset=".18" stop-color="#1f69b3"/><stop offset=".47" stop-color="#1c82c4"/><stop offset=".84" stop-color="#16a9e1"/><stop offset="1" stop-color="#14bdef"/></linearGradient><linearGradient id="linear-gradient-2" x1="39.09" x2="309.89" y2="174.49" xlink:href="#linear-gradient"/></defs><circle class="cls-1" cx="174.49" cy="174.49" r="174.49"/><circle class="cls-4" cx="174.49" cy="174.49" r="135.4"/><g><g><path class="cls-2" d="m67.68,289.77c.47-.48.67-1.03.6-1.64-.07-.61-.43-1.47-1.08-2.6-.66-1.12-1.05-2.03-1.17-2.73-.18-.99.06-1.83.72-2.52.64-.67,1.44-.94,2.39-.83.95.11,1.85.58,2.7,1.41.58.56.99,1.17,1.23,1.83s.29,1.32.16,1.96c-.13.64-.44,1.21-.91,1.7l-.74-.72c.58-.6.83-1.27.78-2.02-.06-.75-.43-1.46-1.11-2.13-.67-.64-1.34-1.01-2.02-1.09-.68-.08-1.25.11-1.72.59-.43.44-.6.98-.52,1.6s.41,1.42.99,2.39c.57.97.95,1.76,1.13,2.38s.22,1.18.11,1.7-.37.99-.79,1.42c-.66.69-1.47.97-2.42.85-.95-.12-1.87-.61-2.77-1.47-.61-.59-1.07-1.25-1.37-1.96-.3-.71-.39-1.4-.28-2.05.12-.65.42-1.23.91-1.74l.74.71c-.59.61-.83,1.32-.72,2.12.12.8.55,1.56,1.31,2.3.68.65,1.37,1.03,2.06,1.13.7.1,1.29-.1,1.77-.59Z"/><path class="cls-2" d="m78.72,296.08c-.72.85-1.49,1.48-2.33,1.88-.84.4-1.67.54-2.51.43-.84-.11-1.62-.47-2.34-1.07-1.08-.91-1.63-2.03-1.65-3.36-.02-1.33.53-2.66,1.63-3.97l.8-.96c.71-.84,1.49-1.47,2.33-1.87s1.69-.55,2.53-.44c.84.11,1.62.46,2.33,1.06.71.6,1.2,1.3,1.46,2.1.26.8.27,1.64.04,2.52-.23.88-.69,1.74-1.37,2.57l-.93,1.11Zm.06-1.66c.94-1.12,1.42-2.2,1.44-3.26.03-1.06-.4-1.95-1.28-2.69-.86-.72-1.81-.98-2.86-.78-1.04.21-2.04.88-3,2.01l-.81.97c-.92,1.1-1.4,2.18-1.43,3.25s.39,1.97,1.27,2.71c.89.74,1.85,1.01,2.87.79,1.03-.22,2.02-.89,2.97-2.03l.82-.98Z"/><path class="cls-2" d="m86.9,304.07c-.86.95-1.8,1.48-2.82,1.57-1.02.1-2.06-.23-3.1-.98-.73-.52-1.24-1.17-1.54-1.94-.3-.77-.36-1.6-.18-2.48s.57-1.76,1.19-2.62l.92-1.27c.63-.87,1.34-1.54,2.13-1.99.79-.45,1.61-.66,2.44-.61.84.05,1.63.34,2.38.88,1.05.76,1.68,1.64,1.88,2.65s-.01,2.04-.63,3.12l-.84-.6c1-1.82.69-3.3-.91-4.46-.89-.64-1.84-.82-2.85-.53-1.01.29-1.94,1.01-2.78,2.19l-.87,1.2c-.82,1.13-1.21,2.22-1.18,3.27.03,1.05.48,1.88,1.36,2.52.87.63,1.67.89,2.41.79.74-.1,1.46-.53,2.16-1.28l.84.6Z"/><path class="cls-2" d="m91.22,311.26l4.22-7-1.27-.77.42-.7,1.27.77.56-.93c.48-.79,1.04-1.27,1.7-1.45.66-.18,1.34-.05,2.06.38.32.19.6.42.83.67l-.49.67c-.2-.2-.44-.38-.72-.55-.47-.28-.92-.36-1.36-.22-.44.14-.82.47-1.14,1.01l-.58.96,1.84,1.11-.42.7-1.84-1.11-4.22,7-.85-.52Z"/><path class="cls-2" d="m97.49,309.64c.41-.76.92-1.37,1.55-1.82.62-.45,1.3-.7,2.02-.75.72-.05,1.42.11,2.11.48,1.05.57,1.71,1.39,1.97,2.49.26,1.09.06,2.25-.6,3.47l-.1.18c-.41.77-.93,1.38-1.55,1.83-.62.45-1.29.7-2.01.75-.72.04-1.42-.12-2.1-.49-1.05-.56-1.7-1.39-1.96-2.48s-.06-2.25.59-3.47l.09-.18Zm.75.71c-.51.95-.68,1.86-.52,2.73.16.87.64,1.52,1.44,1.95.79.42,1.59.46,2.41.12.82-.34,1.49-1.01,2.03-2.01l.09-.17c.33-.6.51-1.22.56-1.84s-.06-1.18-.32-1.68c-.26-.49-.65-.88-1.17-1.16-.78-.42-1.58-.46-2.4-.11-.82.35-1.5,1.02-2.03,2.01l-.09.16Z"/><path class="cls-2" d="m111.82,312.98c-.17-.13-.37-.24-.58-.34-.56-.27-1.11-.33-1.65-.21-.54.13-1.03.45-1.48.97l-2.65,5.58-.89-.42,3.85-8.13.88.42-.6,1.3c.93-.74,1.92-.85,2.97-.36.25.12.43.25.55.38l-.41.81Z"/><path class="cls-2" d="m121.79,322.59c.24-.63.21-1.21-.09-1.74-.3-.53-.98-1.19-2.02-1.96s-1.76-1.46-2.15-2.05c-.56-.84-.67-1.71-.33-2.6.33-.86.95-1.43,1.87-1.7s1.93-.19,3.04.23c.75.29,1.37.69,1.85,1.2.48.52.79,1.09.92,1.74.13.64.07,1.28-.17,1.92l-.96-.37c.29-.77.27-1.5-.08-2.17-.35-.67-.97-1.18-1.86-1.51-.86-.33-1.63-.4-2.29-.21-.66.19-1.11.6-1.34,1.22-.22.58-.17,1.13.16,1.67.32.54.94,1.14,1.85,1.8.91.66,1.57,1.24,1.98,1.74.41.5.67,1,.77,1.52s.05,1.05-.16,1.62c-.34.89-.97,1.47-1.88,1.74-.92.27-1.96.18-3.12-.26-.8-.3-1.48-.72-2.03-1.26-.56-.54-.91-1.13-1.06-1.77-.15-.64-.1-1.3.15-1.96l.96.36c-.3.8-.24,1.54.18,2.23.42.69,1.12,1.22,2.11,1.6.88.33,1.66.41,2.34.22.68-.19,1.14-.6,1.39-1.24Z"/><path class="cls-2" d="m127.29,327.69c-.73-.23-1.33-.61-1.81-1.15-.48-.54-.78-1.19-.91-1.93-.13-.75-.07-1.52.18-2.32l.11-.34c.26-.83.65-1.52,1.17-2.08s1.13-.94,1.82-1.14c.69-.2,1.37-.2,2.03,0,1.04.32,1.76.94,2.15,1.84.39.9.39,1.97.01,3.2l-.17.53-6.13-1.9-.06.18c-.3.97-.27,1.87.08,2.69.36.82.96,1.36,1.81,1.63.51.16.99.2,1.43.14s.89-.25,1.34-.56l.45.64c-1.01.79-2.18.98-3.51.57Zm2.34-8.15c-.71-.22-1.4-.15-2.05.23-.65.37-1.17.98-1.55,1.83l5.15,1.6.03-.1c.23-.83.2-1.58-.08-2.24-.28-.66-.79-1.1-1.5-1.32Z"/><path class="cls-2" d="m138.85,322.26c-.19-.09-.41-.17-.64-.22-.6-.16-1.15-.12-1.66.11-.5.23-.92.64-1.27,1.23l-1.55,5.98-.96-.25,2.25-8.71.94.24-.34,1.39c.78-.9,1.73-1.2,2.85-.91.27.07.47.16.61.27l-.25.87Z"/><path class="cls-2" d="m141.87,329.86l4.24-6.9,1,.21-5.13,8.12-.79-.16-1.46-9.49,1,.21,1.14,8.02Z"/><path class="cls-2" d="m148.25,332.45l-.98-.17,1.49-8.87.98.17-1.49,8.87Zm.77-11.62c.03-.18.12-.33.26-.44s.32-.14.52-.11c.21.04.36.13.46.27.1.15.14.31.11.5-.03.18-.12.33-.26.43-.14.1-.32.14-.53.1-.21-.03-.36-.12-.46-.27-.1-.15-.13-.31-.1-.49Z"/><path class="cls-2" d="m154.62,332.69c.69.09,1.29-.03,1.8-.36.51-.33.83-.8.94-1.41l.95.12c-.1.54-.33,1.02-.7,1.42-.37.41-.83.71-1.38.89s-1.12.24-1.72.17c-1.17-.15-2.05-.67-2.63-1.57-.58-.9-.79-2.04-.61-3.41l.04-.3c.11-.88.36-1.64.76-2.28.39-.64.9-1.1,1.52-1.4.62-.3,1.32-.4,2.09-.3.98.12,1.75.52,2.31,1.18.56.66.8,1.47.73,2.43l-.95-.12c.04-.7-.14-1.3-.54-1.79-.41-.49-.96-.77-1.66-.86-.89-.11-1.62.12-2.2.7-.57.58-.93,1.45-1.08,2.61l-.04.29c-.14,1.14,0,2.06.4,2.76.41.7,1.07,1.11,1.96,1.22Z"/><path class="cls-2" d="m163.85,334.4c-.76-.05-1.44-.29-2.03-.7-.59-.42-1.03-.97-1.33-1.67-.3-.69-.42-1.46-.36-2.29l.02-.36c.06-.86.28-1.63.66-2.3s.88-1.18,1.51-1.53,1.28-.51,1.98-.46c1.09.07,1.93.5,2.52,1.29.59.79.84,1.82.75,3.11l-.04.56-6.4-.44v.19c-.08,1.02.15,1.88.69,2.6s1.25,1.11,2.13,1.17c.53.04,1.01-.03,1.43-.19s.81-.45,1.17-.85l.59.51c-.8,1.01-1.9,1.46-3.28,1.37Zm.39-8.47c-.75-.05-1.39.18-1.94.69-.55.51-.91,1.23-1.08,2.14l5.38.37v-.11c.04-.86-.16-1.58-.59-2.16-.43-.57-1.02-.89-1.77-.94Z"/><path class="cls-2" d="m183.04,329.03c.03,1.11-.14,2.1-.51,2.95-.36.85-.9,1.51-1.6,1.98-.7.47-1.52.72-2.46.74-1.41.03-2.57-.44-3.46-1.43-.89-.99-1.36-2.34-1.4-4.06l-.03-1.25c-.03-1.1.14-2.08.51-2.94.37-.86.91-1.53,1.61-2,.7-.47,1.52-.72,2.45-.75.93-.02,1.76.18,2.48.61.72.43,1.29,1.05,1.7,1.86.41.81.63,1.76.68,2.84l.04,1.45Zm-1.05-1.29c-.04-1.46-.39-2.59-1.07-3.4-.68-.81-1.59-1.2-2.74-1.17-1.12.03-2.01.46-2.66,1.31s-.95,2.01-.92,3.49l.03,1.26c.04,1.43.4,2.56,1.08,3.39.69.82,1.6,1.22,2.74,1.19,1.16-.03,2.05-.46,2.68-1.31s.92-2.01.89-3.48l-.03-1.28Z"/><path class="cls-2" d="m189.43,325.74c-.21-.02-.44-.02-.68,0-.62.05-1.13.26-1.53.64-.4.38-.67.91-.79,1.58l.5,6.16-.99.08-.72-8.96.97-.08.13,1.42c.44-1.1,1.24-1.7,2.4-1.79.28-.02.5,0,.66.06l.05.9Z"/><path class="cls-2" d="m191.03,329.19c-.18-1.4-.02-2.54.49-3.44s1.3-1.41,2.36-1.55c1.21-.16,2.2.2,2.96,1.09l-.12-1.29.92-.12,1.14,8.74c.15,1.15-.05,2.1-.61,2.85-.56.75-1.38,1.2-2.48,1.35-.62.08-1.23.02-1.83-.18-.6-.2-1.09-.52-1.48-.93l.47-.67c.81.77,1.7,1.09,2.66.96.82-.11,1.44-.43,1.83-.98.4-.55.55-1.25.45-2.12l-.15-1.12c-.52.96-1.38,1.52-2.59,1.68-1.03.13-1.92-.17-2.65-.91-.73-.74-1.19-1.81-1.38-3.22l-.02-.13Zm1.02.04c.15,1.14.49,2,1.04,2.6.54.6,1.23.84,2.06.73,1.21-.16,2-.81,2.37-1.97l-.54-4.15c-.31-.54-.69-.93-1.17-1.18-.47-.24-1.01-.32-1.62-.25-.83.11-1.43.52-1.81,1.23-.38.71-.48,1.7-.32,2.97Z"/><path class="cls-2" d="m207.41,331.22c-.15-.26-.29-.66-.43-1.2-.26.51-.63.94-1.11,1.29-.48.34-1.02.57-1.61.69-.85.16-1.58.06-2.2-.31-.62-.37-.99-.92-1.13-1.64-.17-.86.06-1.61.68-2.25.62-.64,1.57-1.08,2.85-1.33l1.77-.34-.19-1c-.12-.63-.41-1.09-.87-1.38-.46-.29-1.06-.36-1.81-.21-.68.13-1.21.41-1.59.85-.38.43-.52.9-.43,1.39l-.98.18c-.14-.7.07-1.37.63-2.01.55-.64,1.31-1.05,2.26-1.24.98-.19,1.81-.09,2.47.29.66.38,1.09,1.01,1.28,1.89l.81,4.18c.17.85.38,1.48.64,1.87l.02.1-1.04.2Zm-3.2-.11c.65-.13,1.21-.4,1.66-.81.45-.41.75-.91.88-1.48l-.38-1.94-1.75.34c-.97.2-1.7.52-2.18.98s-.67.98-.55,1.58c.1.5.36.87.79,1.13.43.26.94.33,1.53.21Z"/><path class="cls-2" d="m209.9,321.44l.42,1.48c.19-.62.49-1.13.91-1.54.42-.41.92-.69,1.51-.84.93-.24,1.7-.16,2.29.25.59.41,1.02,1.14,1.3,2.19l1.47,5.71-.96.25-1.47-5.72c-.21-.78-.52-1.31-.94-1.61-.42-.3-.99-.35-1.7-.17-.6.15-1.07.48-1.44.97-.36.49-.57,1.08-.63,1.77l1.53,5.96-.96.25-2.24-8.71.92-.24Z"/><path class="cls-2" d="m217.14,316.78c-.05-.18-.04-.35.04-.51.08-.16.22-.27.42-.33.2-.06.38-.05.54.04.16.09.26.22.32.4s.04.35-.04.5c-.08.16-.22.27-.43.33-.2.06-.38.05-.53-.04-.15-.09-.26-.22-.31-.4Zm4.5,10.75l-.95.29-2.62-8.6.95-.29,2.62,8.6Z"/><path class="cls-2" d="m224.83,325.64l5.52-1.92.28.79-6.68,2.33-.24-.69,2.72-8.78-4.99,1.74-.28-.82,6.18-2.15.25.71-2.74,8.8Z"/><path class="cls-2" d="m237.94,321.54c-.2-.22-.42-.58-.66-1.09-.15.55-.43,1.05-.83,1.48-.41.43-.89.77-1.44,1-.8.33-1.54.38-2.22.13s-1.16-.7-1.44-1.38c-.33-.81-.26-1.59.21-2.34.48-.75,1.32-1.37,2.52-1.87l1.67-.69-.39-.94c-.25-.59-.62-.99-1.13-1.17-.51-.19-1.11-.14-1.81.15-.64.27-1.1.65-1.39,1.15s-.33.98-.14,1.44l-.92.37c-.27-.66-.2-1.36.21-2.1s1.07-1.29,1.96-1.66c.93-.38,1.75-.45,2.48-.21s1.27.77,1.63,1.6l1.63,3.93c.33.8.67,1.37,1,1.7l.04.09-.98.41Zm-3.16.54c.61-.25,1.1-.63,1.46-1.13.36-.5.55-1.04.56-1.63l-.76-1.83-1.64.68c-.91.39-1.56.85-1.94,1.39-.38.54-.46,1.09-.22,1.66.19.47.53.78,1,.94.47.16.99.13,1.54-.1Z"/><path class="cls-2" d="m238,309.1l.98,2.08,1.68-.79.35.74-1.68.79,2.56,5.43c.21.45.45.75.72.89.27.14.59.13.97-.05.15-.07.38-.21.69-.42l.38.71c-.2.2-.5.39-.9.58-.62.29-1.15.32-1.6.1-.45-.23-.84-.69-1.17-1.38l-2.56-5.43-1.5.71-.35-.74,1.5-.71-.98-2.08.9-.43Z"/><path class="cls-2" d="m241.24,307.19c-.08-.17-.1-.34-.05-.51.05-.17.17-.3.36-.4.19-.1.37-.11.54-.06.17.06.3.17.38.34.08.17.1.33.05.5-.05.17-.17.3-.36.4s-.36.11-.53.06-.29-.17-.38-.34Zm6.31,9.79l-.89.45-4.08-8.01.89-.45,4.08,8.01Z"/><path class="cls-2" d="m247.48,311.85c-.43-.75-.66-1.51-.71-2.28-.05-.77.1-1.47.44-2.11.34-.64.85-1.15,1.53-1.53,1.04-.59,2.09-.7,3.15-.34,1.06.36,1.93,1.15,2.61,2.36l.1.18c.43.76.67,1.52.72,2.29.05.77-.1,1.47-.44,2.1-.34.63-.86,1.13-1.54,1.52-1.04.59-2.09.7-3.15.34-1.06-.36-1.93-1.15-2.62-2.35l-.1-.17Zm1-.25c.53.94,1.21,1.57,2.03,1.89.82.33,1.63.27,2.42-.18.78-.44,1.24-1.1,1.39-1.98.14-.88-.06-1.8-.62-2.79l-.09-.17c-.34-.6-.76-1.08-1.26-1.45s-1.03-.58-1.59-.63c-.55-.05-1.09.08-1.61.37-.77.44-1.23,1.1-1.37,1.98s.06,1.81.62,2.79l.09.16Z"/><path class="cls-2" d="m254.8,302.53l.87,1.27c-.02-.65.1-1.23.37-1.75.26-.52.65-.94,1.16-1.28.81-.53,1.56-.69,2.25-.49.69.2,1.33.75,1.93,1.66l3.22,4.95-.83.54-3.23-4.95c-.44-.67-.91-1.08-1.41-1.23-.5-.15-1.05-.02-1.67.38-.52.34-.87.79-1.05,1.38-.19.58-.2,1.21-.03,1.88l3.36,5.16-.83.54-4.91-7.54.79-.52Z"/><path class="cls-2" d="m270.03,300.12c-.29-.4-.69-.6-1.18-.6-.5,0-1.12.16-1.86.5-.74.34-1.36.55-1.84.64-.48.09-.91.06-1.26-.06-.36-.13-.67-.37-.94-.73-.42-.57-.53-1.22-.33-1.94.2-.72.67-1.36,1.42-1.91.81-.6,1.6-.87,2.38-.84.78.04,1.41.38,1.89,1.02l-.8.59c-.31-.42-.75-.65-1.31-.66s-1.11.17-1.65.57c-.53.39-.86.82-1.01,1.29-.15.47-.08.89.2,1.27.27.36.61.54,1.02.55.41,0,1.03-.17,1.85-.53.82-.35,1.48-.57,1.97-.64.49-.07.91-.04,1.28.1.36.14.68.39.96.77.45.61.57,1.28.34,2.01-.22.73-.73,1.39-1.52,1.97-.84.62-1.68.92-2.5.9-.82-.02-1.47-.34-1.93-.97l.8-.59c.38.45.84.66,1.4.66.56,0,1.13-.23,1.73-.67.56-.41.92-.87,1.08-1.37.16-.5.11-.94-.17-1.31Z"/><path class="cls-2" d="m283.07,295.18l-.62.56-9.57-10.69.62-.56,9.57,10.69Z"/><path class="cls-2" d="m291.98,278.62c-.39-.36-.82-.5-1.29-.42s-1.13.38-2.01.9-1.64.87-2.29,1.06c-1.25.35-2.29.14-3.12-.61-.72-.66-1.04-1.49-.97-2.51s.53-1.99,1.39-2.92c.57-.62,1.19-1.07,1.86-1.35.67-.28,1.35-.36,2.03-.25.68.11,1.27.4,1.79.87l-1.41,1.55c-.47-.43-.96-.61-1.5-.56s-1.05.35-1.54.89c-.46.51-.72,1-.75,1.48-.04.48.13.9.52,1.25.33.3.74.4,1.23.29.5-.1,1.17-.41,2.01-.91.84-.51,1.59-.85,2.24-1.03.65-.18,1.23-.21,1.75-.1.52.12,1.01.38,1.47.8.74.68,1.08,1.51.99,2.48-.08.97-.57,1.95-1.46,2.92-.59.65-1.25,1.13-1.99,1.45-.74.32-1.45.44-2.15.36-.7-.08-1.32-.38-1.88-.9l1.42-1.55c.51.46,1.05.65,1.64.57.58-.08,1.16-.43,1.74-1.06.49-.54.75-1.05.79-1.52.03-.47-.13-.87-.5-1.2Z"/><path class="cls-2" d="m299.68,274.56c-.8,1-1.77,1.55-2.89,1.67-1.13.11-2.21-.25-3.26-1.09l-.19-.16c-.7-.56-1.22-1.2-1.55-1.91s-.46-1.44-.37-2.17c.09-.73.37-1.4.85-2,.77-.95,1.67-1.45,2.69-1.48,1.03-.03,2.1.4,3.21,1.3l.63.51-3.68,4.58c.62.42,1.23.59,1.84.53s1.12-.36,1.53-.87c.58-.72.76-1.54.54-2.46l1.49-.2c.19.62.22,1.25.07,1.91-.15.65-.45,1.27-.92,1.86Zm-6.15-4.64c-.35.43-.48.9-.39,1.41.09.51.37,1.02.85,1.52l2.41-3-.12-.09c-.55-.39-1.07-.57-1.53-.54-.47.03-.88.26-1.23.7Z"/><path class="cls-2" d="m299.93,262.06c-.19.19-.37.4-.54.63-.54.75-.62,1.46-.24,2.14l4.98,3.62-1.19,1.63-7.28-5.29,1.13-1.56.84.55c-.35-.85-.26-1.63.24-2.33.17-.23.34-.4.51-.51l1.53,1.12Z"/><path class="cls-2" d="m306.35,260.72l-4.34-5.12,1.14-1.75,5.81,7.54-.96,1.47-9.24-2.3,1.15-1.75,6.44,1.91Z"/><path class="cls-2" d="m301.74,251.61c-.27-.16-.44-.38-.51-.65s-.02-.57.17-.88c.19-.31.42-.5.7-.57.28-.07.55-.02.82.14.26.16.43.37.5.65.07.28.01.57-.17.88s-.42.5-.69.57c-.27.06-.54.02-.8-.14Zm10.83,3.97l-1.04,1.73-7.72-4.61,1.04-1.73,7.72,4.61Z"/><path class="cls-2" d="m314.34,249.47c.24-.44.31-.88.21-1.31s-.34-.76-.71-.99l.9-1.67c.48.29.86.69,1.13,1.2.27.52.4,1.09.38,1.72-.02.63-.18,1.23-.49,1.8-.6,1.11-1.43,1.79-2.5,2.05-1.07.26-2.23.05-3.49-.63l-.18-.1c-1.2-.65-2-1.49-2.37-2.53s-.26-2.11.33-3.22c.51-.94,1.2-1.56,2.06-1.86.87-.3,1.76-.22,2.66.23l-.9,1.67c-.46-.23-.92-.27-1.37-.14s-.79.42-1.04.87c-.31.58-.34,1.13-.09,1.67.25.54.8,1.04,1.64,1.5l.29.15c.86.46,1.58.65,2.17.57.59-.08,1.04-.42,1.36-1Z"/><path class="cls-2" d="m320.06,241.6c-.54,1.16-1.34,1.93-2.41,2.31-1.07.38-2.21.29-3.42-.28l-.23-.11c-.81-.38-1.47-.87-1.96-1.49-.5-.61-.79-1.28-.88-2.02-.09-.73.02-1.45.35-2.15.52-1.11,1.27-1.8,2.26-2.08s2.13-.11,3.43.49l.74.34-2.48,5.33c.7.26,1.34.28,1.91.07.58-.21,1-.62,1.28-1.21.39-.84.37-1.68-.06-2.52l1.4-.55c.33.55.51,1.17.53,1.84.01.67-.13,1.34-.45,2.02Zm-7.09-3.03c-.23.5-.25.99-.04,1.46s.61.9,1.19,1.27l1.62-3.49-.14-.06c-.63-.25-1.17-.3-1.62-.16-.45.14-.79.46-1.03.97Z"/><path class="cls-2" d="m321.8,221.03c1.12.39,2.03.93,2.74,1.62.71.68,1.16,1.47,1.36,2.34.2.88.13,1.78-.2,2.72-.33.93-.84,1.67-1.55,2.23-.71.56-1.55.9-2.52,1-.98.1-2.01-.04-3.1-.42l-.64-.23c-1.11-.39-2.03-.94-2.74-1.63-.71-.69-1.17-1.48-1.37-2.36-.2-.88-.13-1.78.19-2.71.33-.93.84-1.68,1.54-2.24.7-.56,1.54-.89,2.51-.99.98-.1,2.02.05,3.14.44l.64.22Zm-1.29,1.77c-1.27-.45-2.32-.55-3.16-.31-.84.24-1.42.8-1.73,1.68-.3.86-.2,1.65.3,2.37.5.72,1.37,1.3,2.59,1.74l.66.23c1.25.44,2.31.54,3.17.29.86-.25,1.44-.81,1.74-1.67.31-.88.21-1.67-.29-2.38-.5-.71-1.4-1.29-2.68-1.74l-.6-.21Z"/><path class="cls-2" d="m322.27,214.17c-.12.24-.21.5-.29.77-.26.89-.09,1.59.51,2.09l5.91,1.7-.56,1.94-8.64-2.48.53-1.85.98.23c-.62-.68-.81-1.44-.57-2.27.08-.28.18-.5.31-.65l1.82.53Z"/><path class="cls-2" d="m325.05,213.86c-1.36-.32-2.37-.89-3.04-1.72s-.87-1.77-.63-2.83c.23-1,.76-1.7,1.59-2.11l-.86-.29.41-1.77,8.49,1.97c1.15.27,1.97.84,2.47,1.7.5.87.61,1.91.32,3.13-.15.64-.43,1.24-.84,1.79-.41.55-.87.94-1.37,1.15l-.97-1.21c.86-.44,1.39-1.1,1.6-1.98.15-.65.09-1.21-.17-1.67-.27-.46-.74-.77-1.43-.93l-.59-.14c.5.71.64,1.54.42,2.49-.24,1.03-.84,1.77-1.81,2.23s-2.17.52-3.61.19Zm.62-1.92c.88.2,1.61.19,2.2-.06.59-.24.96-.68,1.1-1.32.18-.79-.02-1.46-.61-2l-3.85-.9c-.75.22-1.22.72-1.4,1.52-.15.65-.01,1.21.42,1.69.43.48,1.14.83,2.14,1.06Z"/><path class="cls-2" d="m332.68,199.35c-.18.06-.47.09-.87.09.56.74.76,1.58.6,2.49-.15.89-.53,1.58-1.13,2.05-.6.48-1.28.65-2.03.53-.95-.16-1.61-.63-2-1.42-.39-.79-.47-1.83-.25-3.14l.2-1.22-.58-.1c-.46-.08-.85,0-1.17.2s-.52.58-.61,1.1c-.08.45-.02.84.15,1.17.18.33.44.52.79.58l-.33,1.99c-.49-.08-.92-.32-1.28-.71s-.63-.89-.78-1.48c-.15-.6-.16-1.23-.05-1.92.17-1.04.57-1.82,1.2-2.35.63-.53,1.41-.72,2.36-.58l4,.67c.8.13,1.45.13,1.97-.02l.14.02-.34,2.03Zm-1.8,1.95c.07-.39.03-.78-.1-1.16-.13-.38-.35-.68-.64-.91l-1.67-.28-.18,1.07c-.12.74-.09,1.31.11,1.73.2.42.53.66,1,.74.38.06.71-.01.98-.23.27-.22.44-.54.51-.96Z"/><path class="cls-2" d="m324.56,192.3l1.04.05c-.73-.75-1.04-1.66-.92-2.73.2-1.86,1.36-2.7,3.5-2.51l5.91.62-.21,2.01-5.79-.61c-.57-.06-1,.02-1.3.24-.3.22-.48.6-.54,1.16-.09.81.22,1.45.91,1.93l6.36.67-.21,2.01-8.94-.94.2-1.89Z"/><path class="cls-2" d="m322.92,184.65c-.31-.02-.56-.13-.75-.34-.19-.21-.28-.5-.26-.86.02-.37.14-.64.36-.83s.48-.27.79-.25c.3.02.55.13.74.34.19.21.27.5.25.86-.02.37-.14.64-.35.82-.21.18-.47.27-.78.25Zm11.44-1.46l-.12,2.02-8.98-.54.12-2.02,8.98.54Z"/><path class="cls-2" d="m332.93,178.49l.09-4.79,1.61.03-.13,7.3-1.32-.02-5.96-4.67-.08,4.48-1.63-.03.13-7.04,1.28.02,6.02,4.72Z"/><path class="cls-2" d="m334.39,166.37c-.17.1-.44.18-.83.27.69.62,1.06,1.39,1.1,2.32.04.9-.19,1.65-.69,2.24-.49.59-1.12.9-1.88.93-.96.04-1.71-.29-2.25-.98-.54-.69-.84-1.7-.89-3.02l-.05-1.24-.59.02c-.47.02-.83.16-1.1.43-.27.27-.39.67-.37,1.2.02.46.15.83.39,1.12s.54.42.89.41l.08,2.02c-.49.02-.96-.13-1.4-.44-.44-.31-.79-.74-1.06-1.29-.27-.55-.41-1.17-.44-1.87-.04-1.05.19-1.9.7-2.55.5-.65,1.24-1,2.19-1.05l4.05-.16c.81-.03,1.45-.17,1.92-.42h.14s.08,2.05.08,2.05Zm-1.37,2.27c-.02-.4-.13-.77-.33-1.11-.21-.34-.48-.6-.81-.76l-1.69.07.04,1.09c.03.75.18,1.3.46,1.67.27.37.65.54,1.13.52.39-.02.69-.16.91-.42.22-.27.32-.62.3-1.05Z"/><path class="cls-2" d="m322.77,160.63l2.18-.19-.14-1.58,1.49-.13.14,1.58,5-.44c.34-.03.58-.12.72-.27.14-.15.19-.4.16-.74-.02-.23-.07-.46-.14-.7l1.56-.14c.17.45.27.88.31,1.31.13,1.55-.65,2.39-2.36,2.54l-5.08.44.13,1.47-1.49.13-.13-1.47-2.18.19-.18-2.01Z"/><path class="cls-2" d="m322.32,157.64c-.31.04-.58-.03-.8-.2-.23-.17-.36-.44-.41-.8s.02-.66.2-.88.42-.35.73-.39c.3-.04.57.03.79.21s.36.44.4.81c.04.36-.02.65-.2.87-.18.22-.42.35-.72.38Zm10.99-3.48l.24,2.01-8.93,1.07-.24-2.01,8.93-1.07Z"/><path class="cls-2" d="m328.56,152.76c-.87.15-1.68.1-2.44-.12-.75-.23-1.37-.62-1.85-1.18-.48-.56-.79-1.24-.92-2.05-.2-1.2.02-2.23.67-3.11.65-.87,1.6-1.45,2.86-1.72l.47-.09c.88-.15,1.68-.11,2.43.11.74.22,1.36.61,1.84,1.18.48.56.79,1.25.93,2.07.21,1.25-.04,2.32-.75,3.21-.71.89-1.76,1.45-3.14,1.69l-.1.02Zm-.16-2.02c.91-.15,1.6-.46,2.05-.92.45-.46.62-1.03.51-1.7-.11-.67-.46-1.15-1.05-1.44-.59-.29-1.39-.35-2.4-.18-.9.15-1.57.46-2.04.93-.46.47-.63,1.04-.52,1.7.11.65.45,1.12,1.03,1.42.58.3,1.38.36,2.41.19Z"/><path class="cls-2" d="m322.06,141.82l1-.29c-.93-.47-1.52-1.22-1.77-2.28-.42-1.82.4-3,2.48-3.51l5.79-1.35.46,1.97-5.67,1.32c-.56.13-.94.35-1.15.65-.21.3-.25.73-.13,1.27.18.79.68,1.3,1.49,1.52l6.23-1.45.46,1.97-8.76,2.04-.43-1.85Z"/><path class="cls-2" d="m325.13,127.82c-.34.1-.57.32-.66.66-.1.34-.12.86-.06,1.56.06.7.05,1.3-.03,1.81-.18,1.11-.71,1.79-1.6,2.05-.74.22-1.46.09-2.14-.39-.69-.48-1.17-1.2-1.46-2.17-.31-1.03-.3-1.94.02-2.73.32-.79.89-1.3,1.7-1.54l.58,1.94c-.37.11-.64.34-.8.69-.17.35-.18.75-.04,1.21.13.42.33.74.6.95.28.21.58.27.91.17.3-.09.49-.28.58-.58.09-.3.11-.85.05-1.66-.06-.81-.04-1.46.07-1.97.1-.5.28-.91.55-1.21.26-.31.62-.53,1.08-.67.78-.23,1.5-.1,2.17.4s1.16,1.27,1.47,2.31c.21.71.27,1.37.18,2-.09.63-.31,1.16-.67,1.6-.35.44-.79.74-1.3.89l-.56-1.88c.45-.16.75-.44.9-.83s.15-.85,0-1.38c-.15-.51-.36-.87-.64-1.08-.27-.21-.57-.27-.88-.17Z"/></g><path class="cls-2" d="m111.5,136.07h-24.62l-5.59,15.23h-4.8l20.52-54.23h4.36l20.52,54.23h-4.77l-5.62-15.23Zm-23.2-3.87h21.75l-10.88-29.54-10.88,29.54Z"/><path class="cls-2" d="m134.69,151.31h-4.58v-54.23h4.58v54.23Z"/><path class="cls-2" d="m187.04,134.4c-.62,5.71-2.66,10.08-6.13,13.11s-8.08,4.54-13.84,4.54c-4.02,0-7.58-1.01-10.67-3.02-3.09-2.01-5.48-4.86-7.17-8.55-1.69-3.69-2.55-7.9-2.57-12.65v-7.04c0-4.82.84-9.09,2.53-12.81s4.12-6.6,7.28-8.62c3.17-2.02,6.81-3.04,10.93-3.04,5.81,0,10.4,1.56,13.76,4.69,3.36,3.13,5.32,7.46,5.87,13h-4.62c-1.14-9.21-6.15-13.82-15.01-13.82-4.92,0-8.83,1.84-11.75,5.52-2.92,3.68-4.38,8.76-4.38,15.25v6.64c0,6.26,1.42,11.26,4.26,14.98,2.84,3.73,6.69,5.59,11.53,5.59s8.4-1.15,10.84-3.45c2.43-2.3,3.94-5.74,4.51-10.34h4.62Z"/><path class="cls-2" d="m201.99,129.22v22.09h-4.58v-54.23h18.47c5.64,0,10.09,1.44,13.35,4.32,3.27,2.88,4.9,6.84,4.9,11.88s-1.57,9.02-4.71,11.79c-3.14,2.77-7.69,4.15-13.65,4.15h-13.78Zm0-3.87h13.89c4.44,0,7.83-1.06,10.17-3.17,2.33-2.11,3.5-5.06,3.5-8.84s-1.16-6.75-3.48-8.97c-2.32-2.23-5.62-3.36-9.89-3.41h-14.19v24.4Z"/><path class="cls-2" d="m267.75,136.07h-24.62l-5.59,15.23h-4.8l20.52-54.23h4.36l20.52,54.23h-4.77l-5.62-15.23Zm-23.2-3.87h21.75l-10.88-29.54-10.88,29.54Z"/><path class="cls-2" d="m142.45,226.05c0-3-1.06-5.38-3.17-7.13-2.11-1.75-5.97-3.41-11.58-4.99-5.61-1.58-9.71-3.3-12.29-5.16-3.68-2.63-5.51-6.08-5.51-10.35s1.71-7.52,5.12-10.11c3.41-2.59,7.78-3.89,13.09-3.89,3.6,0,6.82.7,9.67,2.09,2.84,1.39,5.05,3.33,6.61,5.81,1.56,2.48,2.35,5.25,2.35,8.31h-4.62c0-3.71-1.27-6.69-3.8-8.95s-5.93-3.38-10.21-3.38-7.45.93-9.91,2.78c-2.46,1.85-3.69,4.27-3.69,7.26,0,2.76,1.1,5.01,3.31,6.75,2.21,1.74,5.75,3.28,10.61,4.61,4.87,1.33,8.55,2.71,11.06,4.14,2.51,1.43,4.4,3.13,5.66,5.12,1.27,1.99,1.9,4.33,1.9,7.04,0,4.27-1.71,7.7-5.12,10.28s-7.91,3.87-13.5,3.87c-3.82,0-7.33-.68-10.52-2.05-3.19-1.37-5.61-3.28-7.26-5.74-1.65-2.46-2.48-5.28-2.48-8.45h4.58c0,3.82,1.43,6.84,4.28,9.05,2.85,2.21,6.65,3.31,11.4,3.31,4.22,0,7.61-.93,10.17-2.79,2.56-1.86,3.84-4.33,3.84-7.41Z"/><path class="cls-2" d="m196.25,215.21c0,4.99-.86,9.37-2.59,13.15-1.73,3.77-4.19,6.68-7.39,8.72-3.2,2.04-6.9,3.05-11.1,3.05-6.33,0-11.45-2.27-15.34-6.8-3.9-4.53-5.85-10.65-5.85-18.34v-5.59c0-4.94.88-9.32,2.63-13.13,1.75-3.81,4.23-6.74,7.43-8.79,3.2-2.05,6.89-3.07,11.06-3.07s7.85,1.01,11.04,3.02c3.19,2.01,5.65,4.85,7.39,8.53,1.74,3.68,2.64,7.93,2.72,12.78v6.48Zm-4.58-5.88c0-6.53-1.48-11.65-4.43-15.35-2.96-3.7-7-5.55-12.14-5.55s-9.06,1.86-12.05,5.57c-2.99,3.71-4.49,8.9-4.49,15.55v5.66c0,6.43,1.49,11.53,4.47,15.29,2.98,3.76,7.03,5.64,12.14,5.64s9.24-1.86,12.14-5.57c2.91-3.71,4.36-8.88,4.36-15.51v-5.74Z"/><path class="cls-2" d="m245.44,222.47c-.62,5.71-2.66,10.08-6.13,13.11s-8.08,4.54-13.84,4.54c-4.02,0-7.58-1.01-10.67-3.02-3.09-2.01-5.48-4.86-7.17-8.55-1.69-3.69-2.55-7.9-2.57-12.65v-7.04c0-4.82.84-9.09,2.53-12.81s4.12-6.6,7.28-8.62c3.17-2.02,6.81-3.04,10.93-3.04,5.81,0,10.4,1.56,13.76,4.69,3.36,3.13,5.32,7.46,5.87,13h-4.62c-1.14-9.21-6.15-13.82-15.01-13.82-4.92,0-8.83,1.84-11.75,5.52-2.92,3.68-4.38,8.76-4.38,15.25v6.64c0,6.26,1.42,11.26,4.26,14.98,2.84,3.73,6.69,5.59,11.53,5.59s8.4-1.15,10.84-3.45c2.43-2.3,3.94-5.74,4.51-10.34h4.62Z"/><path class="cls-2" d="m281.52,169.4H74.81c-.26,0-.47-.21-.47-.47s.21-.47.47-.47h206.7c.26,0,.47.21.47.47s-.21.47-.47.47Z"/><g><path class="cls-2" d="m108.65,270.78c-.1-.21-.19-.57-.25-1.1-.83.86-1.82,1.29-2.98,1.29-1.03,0-1.88-.29-2.54-.87-.66-.58-.99-1.32-.99-2.22,0-1.09.41-1.93,1.24-2.54.83-.6,1.99-.9,3.49-.9h1.74v-.82c0-.62-.19-1.12-.56-1.49-.37-.37-.92-.56-1.65-.56-.64,0-1.17.16-1.6.48s-.65.71-.65,1.17h-1.8c0-.52.19-1.03.56-1.51.37-.49.87-.87,1.51-1.15.63-.28,1.33-.43,2.09-.43,1.21,0,2.15.3,2.83.9.68.6,1.04,1.43,1.06,2.49v4.81c0,.96.12,1.72.37,2.29v.15h-1.88Zm-2.97-1.36c.56,0,1.09-.15,1.59-.43.5-.29.87-.67,1.09-1.13v-2.15h-1.4c-2.19,0-3.29.64-3.29,1.92,0,.56.19,1,.56,1.31.37.32.85.47,1.44.47Z"/><path class="cls-2" d="m112.48,257.55c0-.29.09-.54.27-.73s.44-.3.79-.3.61.1.79.3c.18.2.27.44.27.73s-.09.53-.27.72c-.18.19-.44.29-.79.29s-.61-.1-.79-.29-.27-.44-.27-.72Zm1.93,13.23h-1.79v-10.46h1.79v10.46Z"/><path class="cls-2" d="m120.97,269.52c.64,0,1.19-.19,1.67-.58.48-.39.74-.87.79-1.45h1.69c-.03.6-.24,1.17-.62,1.71-.38.54-.89.97-1.52,1.29-.63.32-1.31.48-2.01.48-1.42,0-2.56-.48-3.4-1.43-.84-.95-1.26-2.25-1.26-3.9v-.3c0-1.02.19-1.92.56-2.72.37-.79.91-1.41,1.61-1.85s1.53-.66,2.48-.66c1.17,0,2.15.35,2.92,1.05.78.7,1.19,1.61,1.24,2.74h-1.69c-.05-.68-.31-1.23-.77-1.67-.46-.43-1.03-.65-1.71-.65-.91,0-1.61.33-2.11.98-.5.65-.75,1.6-.75,2.84v.34c0,1.21.25,2.13.74,2.78.5.65,1.21.98,2.13.98Z"/><path class="cls-2" d="m135.48,265.67c0,1.59-.36,2.87-1.09,3.85-.73.97-1.71,1.46-2.96,1.46s-2.27-.4-3-1.21v5.04h-1.79v-14.48h1.63l.09,1.16c.73-.9,1.74-1.35,3.03-1.35s2.25.47,2.98,1.42c.73.95,1.1,2.27,1.1,3.95v.16Zm-1.79-.2c0-1.18-.25-2.11-.75-2.79-.5-.68-1.19-1.02-2.07-1.02-1.08,0-1.89.48-2.44,1.44v5c.54.95,1.35,1.43,2.46,1.43.86,0,1.54-.34,2.04-1.02.51-.68.76-1.69.76-3.03Z"/><path class="cls-2" d="m143.71,270.78c-.1-.21-.19-.57-.25-1.1-.83.86-1.82,1.29-2.98,1.29-1.03,0-1.88-.29-2.54-.87-.66-.58-.99-1.32-.99-2.22,0-1.09.41-1.93,1.24-2.54.83-.6,1.99-.9,3.49-.9h1.74v-.82c0-.62-.19-1.12-.56-1.49-.37-.37-.92-.56-1.65-.56-.64,0-1.17.16-1.6.48s-.65.71-.65,1.17h-1.8c0-.52.19-1.03.56-1.51.37-.49.87-.87,1.51-1.15.63-.28,1.33-.43,2.09-.43,1.21,0,2.15.3,2.83.9.68.6,1.04,1.43,1.06,2.49v4.81c0,.96.12,1.72.37,2.29v.15h-1.88Zm-2.97-1.36c.56,0,1.09-.15,1.59-.43.5-.29.87-.67,1.09-1.13v-2.15h-1.4c-2.19,0-3.29.64-3.29,1.92,0,.56.19,1,.56,1.31.37.32.85.47,1.44.47Z"/><path class="cls-2" d="m147.56,269.85c0-.31.09-.57.28-.77s.46-.31.83-.31.65.1.84.31.29.46.29.77-.1.54-.29.74-.47.3-.84.3-.64-.1-.83-.3-.28-.45-.28-.74Z"/><path class="cls-2" d="m151.76,265.46c0-1.02.2-1.95.6-2.76s.96-1.45,1.68-1.89c.72-.44,1.54-.67,2.46-.67,1.42,0,2.58.49,3.46,1.48s1.32,2.3,1.32,3.93v.13c0,1.02-.19,1.93-.58,2.74-.39.81-.95,1.44-1.67,1.89-.73.45-1.56.68-2.5.68-1.42,0-2.57-.49-3.45-1.48-.88-.99-1.32-2.29-1.32-3.91v-.13Zm1.8.21c0,1.16.27,2.09.81,2.79s1.26,1.05,2.16,1.05,1.63-.36,2.16-1.07.8-1.71.8-2.99c0-1.15-.27-2.08-.82-2.79-.54-.71-1.27-1.07-2.17-1.07s-1.59.35-2.14,1.05-.81,1.71-.81,3.02Z"/><path class="cls-2" d="m168.08,261.93c-.27-.04-.56-.07-.88-.07-1.17,0-1.97.5-2.39,1.5v7.42h-1.79v-10.46h1.74l.03,1.21c.59-.93,1.42-1.4,2.49-1.4.35,0,.61.04.79.14v1.66Z"/><path class="cls-2" d="m168.81,265.47c0-1.63.38-2.93,1.13-3.89.75-.96,1.75-1.44,3-1.44s2.27.45,2.99,1.35l.09-1.16h1.63v10.21c0,1.35-.4,2.42-1.2,3.2-.8.78-1.88,1.17-3.23,1.17-.75,0-1.49-.16-2.21-.48-.72-.32-1.27-.76-1.65-1.32l.93-1.07c.77.95,1.7,1.42,2.81,1.42.87,0,1.55-.25,2.03-.73.49-.49.73-1.18.73-2.07v-.9c-.72.83-1.69,1.24-2.93,1.24s-2.21-.49-2.97-1.48c-.76-.99-1.14-2.33-1.14-4.03Zm1.8.2c0,1.18.24,2.11.73,2.78.48.67,1.16,1.01,2.03,1.01,1.13,0,1.96-.51,2.48-1.54v-4.77c-.55-1-1.37-1.5-2.46-1.5-.87,0-1.55.34-2.04,1.02-.49.68-.73,1.68-.73,3.01Z"/><path class="cls-2" d="m180.2,271.99h-1.54l5.88-15.28h1.53l-5.87,15.28Z"/><path class="cls-2" d="m193.59,268.01c0-.48-.18-.86-.55-1.13-.36-.27-1-.5-1.9-.69-.91-.19-1.62-.43-2.16-.7-.53-.27-.92-.59-1.18-.97-.25-.37-.38-.82-.38-1.33,0-.86.36-1.58,1.09-2.17.73-.59,1.65-.89,2.78-.89,1.19,0,2.15.31,2.88.92.74.61,1.11,1.4,1.11,2.35h-1.8c0-.49-.21-.91-.62-1.27s-.94-.53-1.57-.53-1.16.14-1.53.43c-.37.28-.55.65-.55,1.11,0,.43.17.76.51.98.34.22.96.43,1.85.63.89.2,1.62.44,2.17.72.55.28.96.61,1.23,1s.4.86.4,1.43c0,.93-.37,1.68-1.12,2.25-.75.56-1.72.85-2.91.85-.84,0-1.58-.15-2.22-.44-.64-.3-1.15-.71-1.51-1.24-.36-.53-.55-1.11-.55-1.73h1.79c.03.6.27,1.07.72,1.43s1.04.53,1.77.53c.68,0,1.22-.14,1.63-.41s.61-.64.61-1.1Z"/><path class="cls-2" d="m196.74,265.46c0-1.02.2-1.95.6-2.76s.96-1.45,1.68-1.89c.72-.44,1.54-.67,2.46-.67,1.42,0,2.58.49,3.46,1.48s1.32,2.3,1.32,3.93v.13c0,1.02-.19,1.93-.58,2.74-.39.81-.95,1.44-1.67,1.89-.73.45-1.56.68-2.5.68-1.42,0-2.57-.49-3.45-1.48-.88-.99-1.32-2.29-1.32-3.91v-.13Zm1.8.21c0,1.16.27,2.09.81,2.79s1.26,1.05,2.16,1.05,1.63-.36,2.16-1.07.8-1.71.8-2.99c0-1.15-.27-2.08-.82-2.79-.54-.71-1.27-1.07-2.17-1.07s-1.59.35-2.14,1.05-.81,1.71-.81,3.02Z"/><path class="cls-2" d="m212.2,269.52c.64,0,1.19-.19,1.67-.58.48-.39.74-.87.79-1.45h1.69c-.03.6-.24,1.17-.62,1.71-.38.54-.89.97-1.52,1.29-.63.32-1.31.48-2.01.48-1.42,0-2.56-.48-3.4-1.43-.84-.95-1.26-2.25-1.26-3.9v-.3c0-1.02.19-1.92.56-2.72.37-.79.91-1.41,1.61-1.85s1.53-.66,2.48-.66c1.17,0,2.15.35,2.92,1.05.78.7,1.19,1.61,1.24,2.74h-1.69c-.05-.68-.31-1.23-.77-1.67-.46-.43-1.03-.65-1.71-.65-.91,0-1.61.33-2.11.98-.5.65-.75,1.6-.75,2.84v.34c0,1.21.25,2.13.74,2.78.5.65,1.21.98,2.13.98Z"/><path class="cls-2" d="m225.24,266.06h1.95v1.46h-1.95v3.27h-1.8v-3.27h-6.41v-1.05l6.3-9.75h1.9v9.35Zm-6.18,0h4.38v-6.9l-.21.39-4.17,6.51Z"/><path class="cls-2" d="m234.58,268.01c0-.48-.18-.86-.55-1.13-.36-.27-1-.5-1.9-.69s-1.62-.43-2.16-.7c-.53-.27-.92-.59-1.18-.97-.25-.37-.38-.82-.38-1.33,0-.86.36-1.58,1.09-2.17.73-.59,1.65-.89,2.78-.89,1.19,0,2.15.31,2.88.92.74.61,1.11,1.4,1.11,2.35h-1.8c0-.49-.21-.91-.62-1.27-.42-.35-.94-.53-1.57-.53s-1.16.14-1.53.43c-.37.28-.55.65-.55,1.11,0,.43.17.76.51.98.34.22.96.43,1.85.63.89.2,1.62.44,2.17.72.55.28.96.61,1.23,1s.4.86.4,1.43c0,.93-.37,1.68-1.12,2.25-.75.56-1.72.85-2.91.85-.84,0-1.58-.15-2.22-.44-.64-.3-1.15-.71-1.51-1.24-.36-.53-.55-1.11-.55-1.73h1.79c.03.6.27,1.07.72,1.43.45.35,1.04.53,1.77.53.68,0,1.22-.14,1.63-.41s.61-.64.61-1.1Z"/><path class="cls-2" d="m237.73,265.46c0-1.02.2-1.95.6-2.76.4-.82.96-1.45,1.68-1.89.72-.44,1.54-.67,2.46-.67,1.42,0,2.58.49,3.46,1.48.88.99,1.32,2.3,1.32,3.93v.13c0,1.02-.19,1.93-.58,2.74-.39.81-.95,1.44-1.67,1.89-.73.45-1.56.68-2.5.68-1.42,0-2.57-.49-3.45-1.48-.88-.99-1.32-2.29-1.32-3.91v-.13Zm1.8.21c0,1.16.27,2.09.81,2.79s1.26,1.05,2.16,1.05,1.63-.36,2.16-1.07c.54-.71.8-1.71.8-2.99,0-1.15-.27-2.08-.82-2.79-.54-.71-1.27-1.07-2.17-1.07s-1.59.35-2.14,1.05-.81,1.71-.81,3.02Z"/></g></g><path class="cls-3" d="m322.27,311.96v1.21h-2.33v6.08h-1.45v-6.08h-2.33v-1.21h6.11Zm7.87,7.28l-.27-4.28c-.03-.56-.03-1.26-.05-2.04h-.08c-.19.64-.4,1.5-.62,2.17l-1.31,4.04h-1.5l-1.31-4.15c-.13-.56-.35-1.42-.51-2.06h-.08c0,.67-.03,1.37-.05,2.04l-.27,4.28h-1.39l.54-7.28h2.17l1.26,3.56c.16.56.29,1.1.48,1.85h.03c.19-.67.35-1.29.51-1.82l1.26-3.59h2.09l.56,7.28h-1.45Z"/></svg>